<svg width="16" height="16" viewBox="0 0 16 16" fill="none" xmlns="http://www.w3.org/2000/svg">
<path fill-rule="evenodd" clip-rule="evenodd" d="M11.375 3.125H14C14.2766 3.125 14.5 3.34844 14.5 3.625V14C14.5 14.2766 14.2766 14.5 14 14.5H2.5C2.22344 14.5 2 14.2766 2 14V3.625C2 3.34844 2.22344 3.125 2.5 3.125H5.125V2.125C5.125 2.05625 5.18125 2 5.25 2H6.125C6.19375 2 6.25 2.05625 6.25 2.125V3.125H10.25V2.125C10.25 2.05625 10.3062 2 10.375 2H11.25C11.3188 2 11.375 2.05625 11.375 2.125V3.125ZM3.125 13.375H13.375V7.4375H3.125V13.375Z" fill="#061178"/>
</svg>
