<svg width="109" height="96" viewBox="0 0 109 96" fill="none" xmlns="http://www.w3.org/2000/svg">
<path d="M93.1917 25.1508H106.781V39.8038H93.1917V67.8037C93.1917 77.3334 93.7815 77.3051 94.961 78.4215C96.1405 79.5379 98.4995 80.0962 102.038 80.0962C103.218 80.2357 104.25 80.0962 105.429 79.9566C106.461 79.9566 107.887 79.1661 108.624 78.4215V93.7724C106.781 94.5603 104.692 95.447 102.628 95.447C100.416 95.5865 98.3521 95.5865 96.2879 95.5865C96.1497 95.5866 93.8152 95.5865 92.8323 95.447C90.438 95.107 86.8772 93.8421 84.6656 92.5862C83.4369 91.8884 80.2424 88.7485 79.8738 87.3529C78.768 85.6085 78.1529 82.1895 78.1529 78.5611V39.8038H65.1299V25.1508H78.1529V0.729004H93.1917V25.1508Z" fill="#10239E"/>
<path fill-rule="evenodd" clip-rule="evenodd" d="M0.256836 39.8039H10.5776V93.9119H27.0909V39.8039H39.3284L39.3283 25.1508H27.0908L27.0909 23.8948C27.0909 20.9642 27.6807 18.1812 28.8602 16.9252C30.0397 15.6692 32.1038 14.9715 35.0526 14.9715C37.7065 14.9715 40.213 15.111 42.7195 15.3901V0.729022L37.1168 0.729004L31.5878 0.729022C24.5843 0.729022 19.0553 4.10958 15.7379 7.35779C11.4622 11.5444 10.5776 16.359 10.5776 22.6388L10.5775 25.1508H0.256763L0.256836 39.8039ZM60.707 46.0837H44.6362V93.9119H60.707V46.0837Z" fill="#10239E"/>
<path d="M60.707 32.617C60.707 36.868 57.2174 40.3141 52.9664 40.3141C48.7154 40.3141 45.2258 36.868 45.2258 32.617C45.2258 28.366 48.7154 24.9199 52.9664 24.9199C57.2174 24.9199 60.707 28.366 60.707 32.617Z" fill="#40A9FF"/>
</svg>
